<svg xmlns="http://www.w3.org/2000/svg" width="24" height="24" fill="none" viewBox="0 0 24 24">
    <path fill="currentColor" d="M12 23c-.265 0-.52-.105-.707-.293C11.105 22.52 11 22.265 11 22v-3H7c-.53 0-1.04-.21-1.414-.586C5.21 18.04 5 17.53 5 17V7c0-.53.21-1.04.586-1.414C5.96 5.21 6.47 5 7 5h14c.53 0 1.04.21 1.414.586C22.79 5.96 23 6.47 23 7v10c0 .53-.21 1.04-.586 1.414C22.04 18.79 21.53 19 21 19h-4.1l-3.7 3.71c-.2.18-.44.29-.7.29H12zm-9-8H1V3c0-.53.21-1.04.586-1.414C1.96 1.21 2.47 1 3 1h16v2H3v12z"/>
</svg>
