<svg xmlns="http://www.w3.org/2000/svg" width="24" height="24" fill="none" viewBox="0 0 24 24">
    <path fill="#000" d="M12 9c-.796 0-1.559.316-2.121.879C9.316 10.44 9 11.204 9 12s.316 1.559.879 2.121c.562.563 1.325.879 2.121.879s1.559-.316 2.121-.879C14.684 13.56 15 12.796 15 12s-.316-1.559-.879-2.121C13.56 9.316 12.796 9 12 9zm0 8c-1.326 0-2.598-.527-3.536-1.464C7.527 14.598 7 13.326 7 12s.527-2.598 1.464-3.536C9.402 7.527 10.674 7 12 7s2.598.527 3.536 1.464C16.473 9.402 17 10.674 17 12s-.527 2.598-1.464 3.536C14.598 16.473 13.326 17 12 17zm0-12.5C7 4.5 2.73 7.61 1 12c1.73 4.39 6 7.5 11 7.5s9.27-3.11 11-7.5c-1.73-4.39-6-7.5-11-7.5z"/>
</svg>
