<svg xmlns="http://www.w3.org/2000/svg" width="24" height="24" fill="none" viewBox="0 0 24 24">
    <path fill="currentColor" d="M11 9h2V7h-2v2zm1 11c-4.41 0-8-3.59-8-8s3.59-8 8-8 8 3.59 8 8-3.59 8-8 8zm0-18c-1.313 0-2.614.259-3.827.761-1.213.503-2.315 1.24-3.244 2.168C3.054 6.804 2 9.348 2 12s1.054 5.196 2.929 7.071c.929.929 2.03 1.665 3.244 2.168C9.386 21.74 10.687 22 12 22c2.652 0 5.196-1.054 7.071-2.929C20.946 17.196 22 14.652 22 12c0-1.313-.259-2.614-.761-3.827-.503-1.213-1.24-2.315-2.168-3.244-.929-.929-2.03-1.665-3.244-2.168C14.614 2.26 13.313 2 12 2zm-1 15h2v-6h-2v6z"/>
</svg>
