<svg xmlns="http://www.w3.org/2000/svg" width="24" height="24" fill="none" viewBox="0 0 24 24">
    <path fill="currentColor" d="M18 16.08c-.76 0-1.44.3-1.96.77L8.91 12.7c.05-.23.09-.46.09-.7 0-.24-.04-.47-.09-.7l7.05-4.11c.54.5 1.25.81 2.04.81.796 0 1.559-.316 2.121-.879C20.684 6.56 21 5.796 21 5s-.316-1.559-.879-2.121C19.56 2.316 18.796 2 18 2s-1.559.316-2.121.879C15.316 3.44 15 4.204 15 5c0 .24.04.47.09.7L8.04 9.81C7.5 9.31 6.79 9 6 9c-.796 0-1.559.316-2.121.879C3.316 10.44 3 11.204 3 12s.316 1.559.879 2.121C4.44 14.684 5.204 15 6 15c.79 0 1.5-.31 2.04-.81l7.12 4.15c-.05.21-.08.43-.08.66 0 1.61 1.31 2.91 2.92 2.91 1.61 0 2.92-1.3 2.92-2.91 0-.774-.308-1.517-.855-2.065-.548-.547-1.29-.855-2.065-.855z"/>
</svg>
