<svg xmlns="http://www.w3.org/2000/svg" width="24" height="24" fill="none" viewBox="0 0 24 24">
    <path fill="#009F79" d="M15.07 11.25l-.9.92C13.45 12.89 13 13.5 13 15h-2v-.5c0-1.11.45-2.11 1.17-2.83l1.24-1.26c.37-.36.59-.86.59-1.41 0-.53-.21-1.04-.586-1.414C13.04 7.21 12.53 7 12 7c-.53 0-1.04.21-1.414.586C10.21 7.96 10 8.47 10 9H8c0-1.06.421-2.078 1.172-2.828C9.922 5.422 10.939 5 12 5c1.06 0 2.078.421 2.828 1.172C15.578 6.922 16 7.939 16 9c-.001.843-.336 1.652-.93 2.25zM13 19h-2v-2h2v2zM12 2c-1.313 0-2.614.259-3.827.761-1.213.503-2.315 1.24-3.244 2.168C3.054 6.804 2 9.348 2 12s1.054 5.196 2.929 7.071c.929.929 2.03 1.665 3.244 2.168C9.386 21.74 10.687 22 12 22c2.652 0 5.196-1.054 7.071-2.929C20.946 17.196 22 14.652 22 12c0-5.53-4.5-10-10-10z"/>
</svg>
