<svg xmlns="http://www.w3.org/2000/svg" width="20" height="20" fill="none" viewBox="0 0 20 20">
    <path fill="#9E9E9E" d="M10 7.5c-.663 0-1.299.263-1.768.732C7.763 8.702 7.5 9.337 7.5 10s.263 1.299.732 1.768c.47.469 1.105.732 1.768.732s1.299-.263 1.768-.732c.469-.47.732-1.105.732-1.768s-.263-1.299-.732-1.768C11.299 7.763 10.663 7.5 10 7.5zm0 6.667c-1.105 0-2.165-.44-2.946-1.22-.782-.782-1.22-1.842-1.22-2.947s.438-2.165 1.22-2.946c.781-.782 1.841-1.22 2.946-1.22 1.105 0 2.165.438 2.946 1.22.782.781 1.22 1.84 1.22 2.946 0 1.105-.438 2.165-1.22 2.946-.781.782-1.84 1.22-2.946 1.22zM10 3.75C5.833 3.75 2.275 6.342.833 10c1.442 3.658 5 6.25 9.167 6.25s7.725-2.592 9.167-6.25c-1.442-3.658-5-6.25-9.167-6.25z"/>
</svg>
