<svg xmlns="http://www.w3.org/2000/svg" width="178" height="42" fill="none" viewBox="0 0 178 42">
    <path fill="#292929" d="M51.912 10.32h14.592v3.936h-9.856v6.176h8.416V24.4h-8.416V34h-4.736V10.32zM80.039 34.448c-1.579 0-3.019-.277-4.32-.832-1.28-.576-2.39-1.397-3.328-2.464-.939-1.088-1.664-2.39-2.176-3.904-.512-1.536-.768-3.264-.768-5.184 0-1.92.256-3.637.768-5.152.512-1.515 1.237-2.795 2.176-3.84.938-1.045 2.048-1.835 3.328-2.368 1.301-.555 2.741-.832 4.32-.832 1.557 0 2.986.277 4.288.832 1.301.555 2.421 1.355 3.36 2.4.938 1.024 1.664 2.293 2.176 3.808.512 1.515.768 3.232.768 5.152s-.256 3.648-.768 5.184c-.512 1.515-1.238 2.816-2.176 3.904-.939 1.067-2.059 1.888-3.36 2.464-1.302.555-2.73.832-4.288.832zm0-4.096c.874 0 1.664-.192 2.368-.576.725-.384 1.333-.939 1.824-1.664.512-.725.896-1.6 1.152-2.624.277-1.024.416-2.165.416-3.424 0-2.56-.523-4.555-1.568-5.984-1.024-1.43-2.422-2.144-4.192-2.144s-3.179.715-4.224 2.144c-1.024 1.43-1.536 3.424-1.536 5.984 0 1.259.128 2.4.384 3.424.277 1.024.661 1.899 1.152 2.624.512.725 1.12 1.28 1.824 1.664.725.384 1.525.576 2.4.576zM99.992 21.296h3.072c1.536 0 2.698-.31 3.488-.928.81-.64 1.216-1.6 1.216-2.88 0-1.28-.406-2.165-1.216-2.656-.79-.512-1.952-.768-3.488-.768h-3.072v7.232zM108.152 34l-4.864-8.96h-3.296V34h-4.736V10.32h8.256c1.237 0 2.4.117 3.488.352s2.026.63 2.816 1.184c.81.555 1.44 1.29 1.888 2.208.469.917.704 2.059.704 3.424 0 1.792-.416 3.243-1.248 4.352-.811 1.11-1.899 1.93-3.264 2.464L113.432 34h-5.28zM126.156 34.448c-1.45 0-2.741-.203-3.872-.608-1.13-.427-2.101-1.088-2.912-1.984-.789-.896-1.397-2.048-1.824-3.456-.405-1.408-.608-3.093-.608-5.056V10.32h4.736v13.44c0 1.237.096 2.283.288 3.136.214.832.512 1.504.896 2.016s.854.885 1.408 1.12c.555.213 1.184.32 1.888.32s1.334-.107 1.888-.32c.576-.235 1.067-.608 1.472-1.12.406-.512.715-1.184.928-2.016.214-.853.32-1.899.32-3.136V10.32h4.544v13.024c0 1.963-.202 3.648-.608 5.056-.405 1.408-1.002 2.56-1.792 3.456-.789.896-1.749 1.557-2.88 1.984-1.13.405-2.421.608-3.872.608zM148.078 34.448c-1.6 0-3.158-.299-4.672-.896-1.494-.597-2.816-1.45-3.968-2.56l2.72-3.264c.853.79 1.802 1.43 2.848 1.92 1.066.47 2.122.704 3.168.704 1.237 0 2.176-.245 2.816-.736.64-.49.96-1.152.96-1.984 0-.448-.086-.821-.256-1.12-.171-.299-.416-.565-.736-.8-.299-.235-.672-.448-1.12-.64-.427-.192-.907-.405-1.44-.64l-3.168-1.344c-.598-.256-1.184-.565-1.76-.928-.576-.363-1.088-.8-1.536-1.312-.448-.533-.811-1.13-1.088-1.792-.278-.683-.416-1.461-.416-2.336 0-.96.202-1.856.608-2.688.405-.853.97-1.579 1.696-2.176.725-.619 1.589-1.099 2.592-1.44 1.002-.363 2.101-.544 3.296-.544 1.386 0 2.73.267 4.032.8 1.301.512 2.432 1.259 3.392 2.24l-2.4 2.976c-.747-.619-1.526-1.099-2.336-1.44-.811-.341-1.707-.512-2.688-.512-1.046 0-1.878.224-2.496.672-.619.427-.928 1.035-.928 1.824 0 .427.096.79.288 1.088.213.299.48.565.8.8.341.235.736.448 1.184.64.448.192.928.384 1.44.576l3.104 1.312c.725.299 1.376.64 1.952 1.024.597.384 1.098.832 1.504 1.344.426.512.746 1.11.96 1.792.234.661.352 1.419.352 2.272 0 .96-.203 1.877-.608 2.752-.384.875-.95 1.643-1.696 2.304-.747.64-1.664 1.152-2.752 1.536-1.067.384-2.283.576-3.648.576zM164.929 14.256h-6.657V10.32h18.113v3.936h-6.72V34h-4.736V14.256z"/>
    <rect width="42" height="42" fill="#03A87C" rx="10"/>
    <path fill="#fff" fill-opacity=".6" fill-rule="evenodd" d="M20.754 33.892c-3.042-.344-5.485-2.208-7.606-4.336-2.062-2.069-3.69-4.468-4.012-7.32-.363-3.216-.113-6.718 2.161-9.1 2.34-2.451 6.017-3.41 9.457-3.07 3.153.314 5.32 2.743 7.688 4.772 2.606 2.235 6.118 4.06 6.508 7.399.412 3.532-1.754 6.962-4.564 9.269-2.622 2.153-6.209 2.773-9.632 2.386z" clip-rule="evenodd"/>
    <path fill="#fff" fill-opacity=".6" fill-rule="evenodd" d="M14.176 12.016c3.01-1.68 6.083-3.42 9.507-2.941 3.866.54 8.156 2.074 9.787 5.64 1.578 3.453-.829 7.2-2.332 10.665-1.198 2.758-2.653 5.422-5.279 6.872-2.579 1.423-5.575 1.254-8.482.723-3.275-.599-6.781-1.223-8.807-3.884-2.231-2.93-3.224-6.932-2.08-10.417 1.103-3.359 4.61-4.94 7.686-6.658z" clip-rule="evenodd"/>
    <path fill="#fff" fill-opacity=".6" fill-rule="evenodd" d="M20.07 29.99c3.256-.08 6.424-.95 8.589-3.057 2.323-2.26 4.108-5.354 3.008-8.226-1.035-2.704-4.792-3.4-7.856-4.435-2.634-.89-5.348-1.788-7.99-.918-2.929.963-5.266 2.988-6.186 5.582-1.01 2.85-.96 6.126 1.217 8.433 2.154 2.282 5.817 2.705 9.219 2.621z" clip-rule="evenodd"/>
</svg>
