<svg xmlns="http://www.w3.org/2000/svg" width="42" height="42" fill="none" viewBox="0 0 42 42">
    <rect width="42" height="42" fill="#5DBE99" rx="10"/>
    <path fill="#fff" fill-opacity=".6" fill-rule="evenodd" d="M20.754 33.892c-3.042-.344-5.485-2.208-7.606-4.336-2.062-2.069-3.69-4.468-4.012-7.32-.363-3.216-.113-6.718 2.161-9.1 2.34-2.451 6.017-3.41 9.457-3.07 3.153.314 5.32 2.743 7.688 4.772 2.606 2.235 6.118 4.06 6.508 7.399.412 3.532-1.754 6.962-4.564 9.269-2.622 2.153-6.209 2.773-9.632 2.386z" clip-rule="evenodd"/>
    <path fill="#fff" fill-opacity=".6" fill-rule="evenodd" d="M14.176 12.016c3.01-1.68 6.083-3.42 9.507-2.941 3.866.54 8.156 2.074 9.787 5.64 1.578 3.453-.829 7.2-2.332 10.665-1.198 2.758-2.653 5.422-5.279 6.872-2.579 1.423-5.575 1.254-8.482.723-3.275-.599-6.781-1.223-8.807-3.884-2.231-2.93-3.224-6.932-2.08-10.417 1.103-3.359 4.61-4.94 7.686-6.658z" clip-rule="evenodd"/>
    <path fill="#fff" fill-opacity=".6" fill-rule="evenodd" d="M20.07 29.99c3.256-.08 6.424-.95 8.589-3.057 2.323-2.26 4.108-5.354 3.008-8.226-1.035-2.704-4.792-3.4-7.856-4.435-2.634-.89-5.348-1.788-7.99-.918-2.929.963-5.266 2.988-6.186 5.582-1.01 2.85-.96 6.126 1.217 8.433 2.154 2.282 5.817 2.705 9.219 2.621z" clip-rule="evenodd"/>
</svg>
